<svg width="195.4mm" height="160.3mm" version="1.1" viewBox="0 0 195.4409 160.264" xmlns="http://www.w3.org/2000/svg" xmlns:xlink="http://www.w3.org/1999/xlink">
 <defs>
  <marker id="Arrow1Lend" overflow="visible" orient="auto">
   <path transform="matrix(-.8 0 0 -.8 -10 0)" d="m0 0 5-5-17.5 5 17.5 5z" fill-rule="evenodd" stroke="#000" stroke-width="1pt"/>
  </marker>
 </defs>
 <g transform="translate(-8.547 -34.11)">
  <rect x="8.547" y="34.11" width="195.4" height="160.3" fill="#fff" fill-rule="evenodd" style="paint-order:fill markers stroke"/>
  <g fill="none">
   <path d="m76.99 116.1v5.1m-51.16-5.1v5.1m22.97-5.1v5.1m-19.07-5.1v5.1m105-5.1v5.1m57.49-5.1v5.1m2.311-5.1v5.1m-21.26-5.1v5.1m-70.05-5.1v5.1m50.93-5.1v5.1m-0.2307-5.1v5.1m-8.814-5.1v5.1m-0.8375-5.1v5.1m-32.74-5.1v5.1m-5.424-5.1v5.1m9.546-5.1v5.1m-78.58-5.1v5.1m40.18-5.1v5.1m-18.85-5.1v5.1m69.65-5.1v5.1m-88.73-5.1v5.1m46.83-5.1v5.1m39.02-5.1v5.1m-30.39-5.1v5.1m-7.763-5.1v5.1m9.522-5.1v5.1m86.12-5.1v5.1m1.038-5.1v5.1m-10.7-5.1v5.1m-9.534-5.1v5.1m-26.99-5.1v5.1m-88.65-5.1v5.1m20.09-5.1v5.1m51.84-5.1v5.1m-61.6-5.1v5.1" stroke="#000" stroke-linejoin="round" stroke-width=".5" style="paint-order:fill markers stroke"/>
   <path d="m20.18 36.28v82.42h181.6v-82.42z" color="#000000" stroke="#000" stroke-width=".34"/>
   <path d="m20.18 76.19c11.01-9.973 21.91-21.06 36.17-26.22 9.831-3.699 20.98-2.042 30 3.036 16.62 9.219 28.98 24.06 43.52 36.01 9.619 7.969 21 15.66 34 15.47 13.45-0.3092 24.88-8.686 34.73-17.04 0.9741-0.817 1.934-1.65 2.872-2.508" color="#ff0000" stroke="#f00" stroke-width=".5"/>
  </g>
  <text transform="rotate(-90)" x="-155.7114" y="16.3789" color="#000000" fill="#000000" font-family="Times" font-size="8px" stroke-width=".34" text-anchor="middle">
   <tspan font-family="sans-serif" font-size="8px" stroke-width=".34">ШИМ-сигнал</tspan>
  </text>
  <text x="111.3489" y="188.6734" color="#000000" fill="#000000" font-family="sans-serif" font-size="8px" stroke-width=".34" text-anchor="middle">
   <tspan font-family="sans-serif" font-size="8px" stroke-width=".34">Время</tspan>
  </text>
  <g fill="none">
   <path d="m20.18 130.9h5.654v49.03h3.9l-3.5e-4 -49.03h7.295l3.8e-4 49.03h2.259l4e-5 -49.03h8.502l-4e-5 49.03h1.018l-2.5e-4 -49.03h9.308l2.5e-4 49.03h0.2459l-2.9e-4 -49.03h18.63l0.214 49.03h0.2289l-0.2289-49.03h8.912v49.03h0.8694l-3e-5 -49.03h7.754l0.01 49.03h1.759l-3e-5 -49.03h6.676v49.03h2.878v-49.03h5.424v49.03h4.122l-1e-4 -49.03h4.111l1e-4 49.03h5.418v-49.03h2.879v49.03h6.677v-49.03h1.752v49.03h7.786l-4e-4 -49.03h0.8375l4e-4 49.03h8.812v-49.03h0.2307v49.03h18.86v-49.03h0.2639v49.03h9.397v-49.03h1.038v49.03h8.516v-49.03h2.311v49.03h7.243v-49.03" color="#ff0000" stroke="#f0f" stroke-width=".5"/>
   <path d="m20.18 118.7v73.51h181.6v-73.51z" color="#000000" stroke="#000" stroke-width=".34"/>
   <path d="m39.25 104.5 9.554-56.61v56.61l9.554-56.61-0.017 56.61 9.537-56.61v56.61l9.325-56.61v56.61l9.783-56.61-0.017 56.61 9.537-56.61v56.61l9.554-56.61v56.61l9.554-56.61-0.017 56.61 9.537-56.61v56.61l9.554-56.61v56.61l9.554-56.61-0.017 56.61 9.537-56.61 0.119 56.61 9.673-56.61-0.119 56.59 9.435-56.63 0.102 56.63 9.656-56.59v56.61l9.554-56.61v56.61l9.554-56.61v56.61m-172 0 9.554-56.61v56.61m-19.11 0 9.554-56.61v56.61" stroke="#00f" stroke-linecap="square" stroke-linejoin="round" stroke-width=".5" style="paint-order:fill markers stroke"/>
  </g>
  <text x="118.4455" y="113.6277" dominant-baseline="auto" fill="#000000" font-family="sans-serif" font-size="8px" letter-spacing="0px" stroke-dashoffset="42.85" stroke-linejoin="round" stroke-width=".2" text-anchor="middle" word-spacing="0px" style="font-feature-settings:normal;font-variant-alternates:normal;font-variant-caps:normal;font-variant-ligatures:normal;font-variant-numeric:normal;font-variant-position:normal;line-height:8.3399992px;paint-order:stroke fill markers;shape-padding:0;text-decoration-color:#000000;text-decoration-line:none;text-decoration-style:solid;text-indent:0;text-orientation:mixed;text-transform:none;white-space:normal" xml:space="preserve"><tspan x="118.4455" y="113.6277" font-size="8px" stroke-width=".2" text-anchor="middle">Входной сигнал</tspan></text>
  <text x="107.9969" y="44.20063" dominant-baseline="auto" fill="#000000" font-family="sans-serif" font-size="8px" letter-spacing="0px" stroke-dashoffset="42.85" stroke-linejoin="round" stroke-width=".2" text-anchor="middle" word-spacing="0px" style="font-feature-settings:normal;font-variant-alternates:normal;font-variant-caps:normal;font-variant-ligatures:normal;font-variant-numeric:normal;font-variant-position:normal;line-height:8.3399992px;paint-order:stroke fill markers;shape-padding:0;text-decoration-color:#000000;text-decoration-line:none;text-decoration-style:solid;text-indent:0;text-orientation:mixed;text-transform:none;white-space:normal" xml:space="preserve"><tspan x="107.9969" y="44.20063" font-size="8px" stroke-width=".2" text-anchor="middle">Пилообразное напряжение</tspan></text>
  <g fill="none" stroke="#000">
   <path d="m25.83 67.38v63.55m157.8-38.48v38.48m-134.9-26.42v26.42m-1.018-81.15v81.15m48.72-26.42v26.42m47.72-26.43v26.43m-67.02-26.42v26.42m59.24-42.13v42.13m55.74-26.42v26.42m-162.5-26.42v26.42m38.15-26.42v26.42m77.19-37.83v37.83m-10.38-26.42v26.42m-6.677-50.74v50.74m66.48-45.03v45.03m-117.5-84.4v84.4m95.98-26.42v75.45m0.2639-82.48v82.48m-9.798-75.48v75.48m-9.557-76.86v76.86m0.2307-82.64v82.64m-96-132.1v83.03m-21.09-72.81v72.81m88.11-26.42 5e-4 26.42m-13.65-63.55v63.55m-53.14-26.42 0.0166 26.42m61.36-57.28v57.28m-4.111-26.47v26.47m-9.546-26.42v26.42m-2.878-70.38v70.38m-17.07-80.3v80.3m0.8694-26.42v26.42m-47.7-26.42-1e-5 26.42m55.46-76.18v76.18m87.88-26.42v26.42" stroke-linejoin="round" stroke-width=".1" style="paint-order:fill markers stroke"/>
   <path d="m132.7 59.47-6.507-13.99m13.8 62.66 19.48-3.894" stroke-width=".2646px"/>
   <path d="m132.6 186.5h21.24" marker-end="url(#Arrow1Lend)" stroke-linejoin="round" stroke-width=".4" style="paint-order:fill markers stroke"/>
  </g>
 </g>
</svg>
